<?xml version="1.0" encoding="utf-8"?>
<!-- Generator: Adobe Illustrator 16.0.0, SVG Export Plug-In . SVG Version: 6.00 Build 0)  -->
<!DOCTYPE svg PUBLIC "-//W3C//DTD SVG 1.1//EN" "http://www.w3.org/Graphics/SVG/1.1/DTD/svg11.dtd">
<svg version="1.1" id="Camada_1" xmlns="http://www.w3.org/2000/svg" xmlns:xlink="http://www.w3.org/1999/xlink" x="0px" y="0px"
	 width="280px" height="88px" viewBox="0 0 280 88" enable-background="new 0 0 280 88" xml:space="preserve">
<path fill-rule="evenodd" clip-rule="evenodd" fill="#7B9F28" d="M16.424,36.064c0,0,7.268-0.645,13.328,5.416
	c6.062,6.062,6.144,13.875,6.144,13.875l-8.494-0.003c0,0,0.175-5.439-4.764-9.716C17.698,41.36,9.909,42.6,9.909,42.6l-0.083,12.75
	L2.46,55.348l0-4.084L2.469,0l7.366,0.001L9.829,32.287l16.41-17.68l9.665,0.001L16.424,36.064z"/>
<path fill-rule="evenodd" clip-rule="evenodd" fill="#8CB42A" d="M43.032,39.672c0,1.3,0.274,2.531,0.822,3.69
	c0.55,1.162,1.307,2.171,2.275,3.029c0.966,0.859,2.103,1.532,3.41,2.02c1.308,0.487,2.693,0.731,4.157,0.731
	s2.849-0.243,4.158-0.73c1.306-0.489,2.444-1.161,3.411-2.02c0.968-0.858,1.727-1.867,2.274-3.027
	c0.551-1.161,0.825-2.392,0.825-3.69c0-1.3-0.274-2.519-0.823-3.655c-0.549-1.138-1.308-2.135-2.273-2.995
	c-0.969-0.858-2.105-1.531-3.412-2.02c-1.308-0.487-2.694-0.73-4.156-0.73c-1.464,0-2.852,0.243-4.157,0.73
	c-1.309,0.487-2.446,1.16-3.413,2.019c-0.968,0.859-1.727,1.856-2.275,2.993C43.307,37.155,43.032,38.374,43.032,39.672
	L43.032,39.672z M36.13,39.671c0.001-2.182,0.458-4.211,1.374-6.092c0.914-1.879,2.17-3.524,3.766-4.941
	c1.595-1.417,3.463-2.53,5.607-3.341c2.145-0.812,4.419-1.218,6.824-1.217c2.457,0,4.746,0.408,6.863,1.22
	c2.117,0.813,3.985,1.927,5.606,3.342c1.62,1.416,2.889,3.063,3.803,4.943c0.915,1.88,1.373,3.911,1.373,6.093
	c-0.001,2.134-0.459,4.153-1.374,6.057c-0.915,1.902-2.185,3.573-3.805,5.011c-1.621,1.439-3.49,2.564-5.607,3.376
	c-2.119,0.812-4.407,1.217-6.863,1.217c-2.406,0-4.681-0.407-6.824-1.22c-2.145-0.811-4.013-1.937-5.607-3.377
	c-1.596-1.438-2.85-3.108-3.764-5.013C36.586,43.826,36.13,41.807,36.13,39.671z"/>
<path fill-rule="evenodd" clip-rule="evenodd" fill="#7B9F28" d="M119.428,24.213c2.456,0,4.744,0.406,6.861,1.22
	c2.119,0.813,3.987,1.926,5.608,3.343c1.62,1.416,2.889,3.063,3.804,4.942c0.914,1.88,1.372,3.911,1.371,6.093l-0.001,15.663h-6.982
	l0.003-15.664c0-1.299-0.274-2.518-0.822-3.655c-0.549-1.137-1.308-2.136-2.275-2.995c-0.968-0.859-2.104-1.532-3.41-2.02
	c-1.309-0.487-2.694-0.732-4.157-0.732c-1.465,0-2.837,0.243-4.118,0.73c-1.282,0.488-2.406,1.16-3.373,2.019
	c-0.968,0.859-1.725,1.856-2.275,2.993c-0.549,1.137-0.823,2.356-0.823,3.655l-0.003,15.664l-6.979-0.001l0.002-15.664
	c0-1.298-0.273-2.518-0.823-3.656c-0.549-1.137-1.308-2.133-2.274-2.994c-0.968-0.859-2.104-1.532-3.411-2.019
	c-1.308-0.489-2.693-0.731-4.156-0.731c-1.465,0-2.837,0.243-4.119,0.73s-2.405,1.161-3.372,2.018
	c-0.969,0.86-1.727,1.858-2.275,2.995c-0.55,1.137-0.823,2.355-0.823,3.655l-0.003,15.663h-6.981l0.002-30.837l7.011-0.022
	L80.493,27.9c0,0,1.729-1.662,3.874-2.475c2.144-0.811,4.418-1.217,6.824-1.217c2.928,0,5.608,0.57,8.038,1.708
	c2.433,1.138,4.458,2.68,6.079,4.63c1.621-1.949,3.659-3.491,6.119-4.629C113.884,24.782,116.552,24.213,119.428,24.213z"/>
<path fill-rule="evenodd" clip-rule="evenodd" fill="#8CB42A" d="M157.228,49.157c1.464,0,2.837-0.243,4.12-0.73
	c1.279-0.486,2.402-1.159,3.371-2.018c0.967-0.859,1.726-1.868,2.275-3.028c0.55-1.16,0.823-2.39,0.823-3.69
	c0-1.299-0.273-2.517-0.821-3.655c-0.549-1.137-1.309-2.134-2.274-2.994c-0.968-0.859-2.093-1.532-3.374-2.019
	c-1.281-0.488-2.653-0.731-4.117-0.731l-10.666-0.002l-0.003,9.398c0,1.302,0.275,2.531,0.823,3.691
	c0.551,1.16,1.308,2.169,2.274,3.029c0.968,0.86,2.105,1.532,3.413,2.019C154.378,48.914,155.764,49.157,157.228,49.157
	L157.228,49.157z M164.095,25.314c2.118,0.813,3.973,1.928,5.568,3.343c1.594,1.416,2.849,3.063,3.764,4.944
	c0.914,1.879,1.373,3.911,1.372,6.092c0,2.135-0.459,4.154-1.373,6.056c-0.916,1.904-2.171,3.575-3.767,5.013
	c-1.595,1.438-3.452,2.564-5.569,3.376c-2.116,0.812-4.406,1.217-6.862,1.217c-2.405-0.002-4.68-0.407-6.823-1.221
	c-2.144-0.811-4.027-1.938-5.646-3.376c-1.621-1.438-2.891-3.11-3.805-5.014c-0.914-1.902-1.37-3.92-1.37-6.057l0.002-28.126
	l6.981,0.001v12.531l10.665,0.001C159.689,24.096,161.978,24.502,164.095,25.314z"/>
<path fill-rule="evenodd" clip-rule="evenodd" fill="#8CB42A" d="M185.131,55.454l-0.005-31.492c0,0-2.397-0.003-4.328,1.312
	c-2.477,2.276-2.375,4.891-2.375,4.891l0.004,25.292L185.131,55.454z"/>
<path fill-rule="evenodd" clip-rule="evenodd" fill="#8CB42A" d="M178.811,12.418l0.004,10.576c0,0,2.258,0.004,4.074-1.234
	c2.332-2.143,2.238-4.604,2.238-4.604l-0.004-4.739L178.811,12.418z"/>
<polygon fill-rule="evenodd" clip-rule="evenodd" fill="#648225" points="178.427,55.456 185.131,55.454 185.126,23.962 "/>
<polygon fill-rule="evenodd" clip-rule="evenodd" fill="#7B9F28" points="178.427,55.456 178.423,29.933 185.126,23.962 "/>
<polygon fill-rule="evenodd" clip-rule="evenodd" fill="#8CB42A" points="178.423,29.933 185.126,23.962 180.798,25.273 "/>
<polygon fill-rule="evenodd" clip-rule="evenodd" fill="#5E7A24" points="178.814,22.994 182.492,22.007 185.09,17.706 "/>
<polygon fill-rule="evenodd" clip-rule="evenodd" fill="#7B9F28" points="178.814,22.994 185.09,17.706 178.811,12.418 "/>
<polygon fill-rule="evenodd" clip-rule="evenodd" fill="#8CB42A" points="178.811,12.418 185.123,12.417 185.09,17.706 "/>
<polygon fill-rule="evenodd" clip-rule="evenodd" fill="#7B9F28" points="139.585,11.561 139.622,40.751 146.566,11.563 "/>
<polygon fill-rule="evenodd" clip-rule="evenodd" fill="#648225" points="146.566,24.093 146.566,11.563 139.622,40.751 
	146.581,30.289 "/>
<polygon fill-rule="evenodd" clip-rule="evenodd" fill="#8CB42A" points="146.566,24.093 146.581,30.289 159.122,24.208 "/>
<polygon fill-rule="evenodd" clip-rule="evenodd" fill="#7B9F28" points="146.581,30.289 157.594,30.297 159.122,24.208 "/>
<polygon fill-rule="evenodd" clip-rule="evenodd" fill="#648225" points="73.619,24.628 80.63,24.606 73.617,55.465 "/>
<path fill-rule="evenodd" clip-rule="evenodd" fill="#7B9F28" d="M73.617,55.465l7.013-30.859l-0.031,30.859
	C80.678,55.587,73.617,55.466,73.617,55.465z"/>
<polygon fill-rule="evenodd" clip-rule="evenodd" fill="#7B9F28" points="2.469,0 9.834,0 2.46,55.348 "/>
<polygon fill-rule="evenodd" clip-rule="evenodd" fill="#648225" points="9.834,0 9.826,55.349 2.46,55.348 "/>
<polygon fill-rule="evenodd" clip-rule="evenodd" fill="#8CB42A" points="9.829,32.264 9.827,42.624 16.424,36.064 "/>
<polygon fill-rule="evenodd" clip-rule="evenodd" fill="#7B9F28" points="26.238,14.607 9.829,32.264 16.424,36.064 "/>
<polygon fill-rule="evenodd" clip-rule="evenodd" fill="#648225" points="16.424,36.064 35.903,14.608 26.238,14.607 "/>
<polygon fill-rule="evenodd" clip-rule="evenodd" fill="#7B9F28" points="9.827,42.624 15.391,42.624 16.424,36.064 "/>
<path fill-rule="evenodd" clip-rule="evenodd" fill="#434342" d="M13.014,76.785c0.004-0.893-0.081-1.691-0.254-2.398
	c-0.172-0.709-0.476-1.311-0.909-1.805c-0.432-0.493-1.014-0.874-1.747-1.138c-0.734-0.266-1.659-0.401-2.773-0.405l-2.791-0.014
	L4.487,82.627l2.79,0.013c1.107,0.006,2.029-0.121,2.764-0.384c0.735-0.262,1.324-0.646,1.765-1.15
	c0.442-0.505,0.751-1.121,0.931-1.847C12.918,78.532,13.01,77.709,13.014,76.785L13.014,76.785z M15.091,76.796
	c-0.025,5.129-2.624,7.681-7.799,7.655L2.46,84.43l0.071-15.226l4.833,0.023C12.539,69.251,15.114,71.774,15.091,76.796z"/>
<path fill-rule="evenodd" clip-rule="evenodd" fill="none" stroke="#4E4A49" stroke-width="1.1126" stroke-miterlimit="10" d="
	M13.014,76.785c0-0.893-0.081-1.691-0.254-2.398c-0.172-0.709-0.476-1.311-0.909-1.805c-0.432-0.493-1.014-0.874-1.747-1.138
	c-0.734-0.266-1.659-0.401-2.773-0.405l-2.791-0.014L4.487,82.627l2.79,0.013c1.107,0.006,2.029-0.121,2.764-0.384
	c0.735-0.262,1.324-0.646,1.765-1.15c0.442-0.505,0.751-1.121,0.931-1.847C12.918,78.532,13.014,77.709,13.014,76.785L13.014,76.785
	z M15.091,76.796c-0.025,5.129-2.624,7.681-7.799,7.655L2.46,84.43l0.071-15.226l4.833,0.023
	C12.539,69.251,15.114,71.774,15.091,76.796z"/>
<polygon fill-rule="evenodd" clip-rule="evenodd" fill="#434342" stroke="#4E4A49" stroke-width="1.1126" stroke-miterlimit="10" points="
	52.392,84.588 41.02,84.535 41.091,69.313 52.117,69.364 52.109,71.174 43.101,71.132 43.08,75.758 51.498,75.797 51.49,77.607 
	43.07,77.567 43.046,82.735 52.4,82.778 "/>
<path fill-rule="evenodd" clip-rule="evenodd" fill="#434342" d="M82.271,84.93c-1.076-0.005-2.018-0.138-2.818-0.394
	c-0.803-0.258-1.47-0.617-2.002-1.077c-0.533-0.46-0.936-1.005-1.209-1.637c-0.274-0.631-0.421-1.329-0.44-2.091l1.938,0.01
	c0.052,0.577,0.203,1.077,0.454,1.502c0.252,0.424,0.575,0.776,0.971,1.054c0.395,0.279,0.848,0.484,1.362,0.617
	c0.516,0.134,1.065,0.202,1.649,0.204c0.568,0.003,1.086-0.055,1.553-0.171c0.465-0.116,0.863-0.288,1.195-0.514
	c0.331-0.227,0.589-0.496,0.771-0.815c0.183-0.317,0.274-0.677,0.276-1.077c0.002-0.416-0.08-0.769-0.244-1.062
	c-0.163-0.293-0.43-0.549-0.803-0.765c-0.372-0.218-0.859-0.414-1.461-0.59c-0.604-0.177-1.347-0.357-2.229-0.548
	c-0.853-0.196-1.588-0.42-2.206-0.674c-0.617-0.251-1.124-0.547-1.519-0.883c-0.394-0.336-0.687-0.72-0.877-1.151
	c-0.19-0.431-0.283-0.932-0.281-1.5c0.003-0.608,0.137-1.17,0.4-1.688c0.264-0.519,0.635-0.963,1.114-1.333
	c0.478-0.372,1.05-0.661,1.716-0.869c0.666-0.209,1.402-0.311,2.211-0.307c0.853,0.004,1.631,0.111,2.334,0.322
	c0.702,0.21,1.309,0.516,1.817,0.913c0.51,0.399,0.907,0.882,1.192,1.448c0.286,0.566,0.438,1.208,0.459,1.923l-1.95-0.01
	c-0.198-1.839-1.456-2.764-3.77-2.773c-1.13-0.006-2.003,0.199-2.615,0.616c-0.612,0.416-0.922,0.98-0.926,1.696
	c-0.001,0.322,0.054,0.598,0.165,0.825c0.109,0.228,0.302,0.428,0.573,0.603c0.271,0.173,0.631,0.335,1.076,0.477
	c0.444,0.146,1.002,0.289,1.671,0.431c0.452,0.094,0.919,0.195,1.399,0.306s0.948,0.244,1.404,0.405
	c0.458,0.159,0.887,0.353,1.289,0.577c0.404,0.224,0.756,0.496,1.059,0.812c0.302,0.317,0.54,0.69,0.715,1.122
	c0.175,0.431,0.262,0.936,0.259,1.513c-0.005,0.668-0.147,1.284-0.43,1.844c-0.283,0.56-0.679,1.04-1.185,1.441
	c-0.504,0.401-1.104,0.714-1.798,0.937C83.84,84.823,83.085,84.934,82.271,84.93z"/>
<path fill-rule="evenodd" clip-rule="evenodd" fill="none" stroke="#4E4A49" stroke-width="1.1126" stroke-miterlimit="10" d="
	M82.271,84.93c-1.076-0.005-2.018-0.138-2.818-0.394c-0.803-0.258-1.47-0.617-2.002-1.077c-0.533-0.46-0.936-1.005-1.209-1.637
	c-0.274-0.631-0.421-1.329-0.44-2.091l1.938,0.01c0.052,0.577,0.203,1.077,0.454,1.502c0.252,0.424,0.575,0.776,0.971,1.054
	c0.395,0.279,0.848,0.484,1.362,0.617c0.516,0.134,1.065,0.202,1.649,0.204c0.568,0.003,1.086-0.055,1.553-0.171
	c0.465-0.116,0.863-0.288,1.195-0.514c0.331-0.227,0.589-0.496,0.771-0.815c0.183-0.317,0.276-0.677,0.276-1.077
	c0-0.416-0.08-0.769-0.244-1.062c-0.163-0.293-0.43-0.549-0.803-0.765c-0.372-0.218-0.859-0.414-1.461-0.59
	c-0.604-0.177-1.347-0.357-2.229-0.548c-0.853-0.196-1.588-0.42-2.206-0.674c-0.617-0.251-1.124-0.547-1.519-0.883
	c-0.394-0.336-0.687-0.72-0.877-1.151c-0.19-0.431-0.281-0.932-0.281-1.5c0-0.608,0.137-1.17,0.4-1.688
	c0.264-0.519,0.635-0.963,1.114-1.333c0.478-0.372,1.05-0.661,1.716-0.869c0.666-0.209,1.402-0.311,2.211-0.307
	c0.853,0.004,1.631,0.111,2.334,0.322c0.702,0.21,1.309,0.516,1.817,0.913c0.51,0.399,0.907,0.882,1.192,1.448
	c0.286,0.566,0.438,1.208,0.459,1.923l-1.95-0.01c-0.198-1.839-1.456-2.764-3.77-2.773c-1.13-0.006-2.003,0.199-2.615,0.616
	c-0.612,0.416-0.926,0.98-0.926,1.696c0,0.322,0.054,0.598,0.165,0.825c0.109,0.228,0.302,0.428,0.573,0.603
	c0.271,0.173,0.631,0.335,1.076,0.477c0.444,0.146,1.002,0.289,1.671,0.431c0.452,0.094,0.919,0.195,1.399,0.306
	s0.948,0.244,1.404,0.405c0.458,0.159,0.887,0.353,1.289,0.577c0.404,0.224,0.756,0.496,1.059,0.812
	c0.302,0.317,0.54,0.69,0.715,1.122c0.175,0.431,0.259,0.936,0.259,1.513c0,0.668-0.147,1.284-0.43,1.844
	c-0.283,0.56-0.679,1.04-1.185,1.441c-0.504,0.401-1.104,0.714-1.798,0.937C83.84,84.823,83.085,84.934,82.271,84.93z"/>
<rect x="110.429" y="69.521" transform="matrix(1 0.0044 -0.0044 1 0.339 -0.4875)" fill-rule="evenodd" clip-rule="evenodd" fill="#434342" stroke="#4E4A49" stroke-width="1.1126" stroke-miterlimit="10" width="2.006" height="15.224"/>
<path fill-rule="evenodd" clip-rule="evenodd" fill="#434342" d="M142.732,85.099c-1.1-0.005-2.101-0.198-3.002-0.579
	c-0.902-0.382-1.674-0.921-2.316-1.614c-0.643-0.696-1.139-1.528-1.488-2.5c-0.349-0.969-0.52-2.046-0.515-3.23
	c0.006-1.2,0.188-2.283,0.545-3.25c0.358-0.968,0.86-1.792,1.506-2.473c0.646-0.682,1.417-1.204,2.313-1.569
	c0.898-0.366,1.885-0.544,2.962-0.539c0.906,0.003,1.748,0.122,2.523,0.357c0.775,0.234,1.455,0.565,2.037,0.995
	c0.583,0.43,1.053,0.945,1.411,1.548c0.359,0.601,0.569,1.274,0.638,2.021l-2.1-0.011c-0.036-0.493-0.167-0.934-0.393-1.327
	c-0.225-0.395-0.531-0.726-0.918-0.997c-0.388-0.271-0.849-0.478-1.387-0.623c-0.537-0.145-1.133-0.219-1.785-0.222
	c-0.778-0.005-1.487,0.128-2.132,0.394c-0.643,0.265-1.195,0.659-1.659,1.18s-0.826,1.162-1.082,1.922
	c-0.258,0.76-0.389,1.627-0.393,2.604c-0.004,0.969,0.118,1.834,0.368,2.597c0.251,0.762,0.604,1.408,1.063,1.937
	c0.46,0.529,1.012,0.937,1.655,1.219c0.646,0.284,1.356,0.429,2.132,0.432c1.115,0.005,2.077-0.169,2.887-0.522
	c0.809-0.355,1.484-0.891,2.025-1.611l0.011-2.33l-4.013-0.019l0.008-1.822l5.985,0.027l-0.036,7.773l-1.453-0.006l-0.511-1.606
	C146.576,84.492,144.946,85.107,142.732,85.099z"/>
<path fill-rule="evenodd" clip-rule="evenodd" fill="none" stroke="#4E4A49" stroke-width="1.1126" stroke-miterlimit="10" d="
	M142.732,85.099c-1.1-0.005-2.101-0.198-3.002-0.579c-0.902-0.382-1.674-0.921-2.316-1.614c-0.643-0.696-1.139-1.528-1.488-2.5
	c-0.349-0.969-0.515-2.046-0.515-3.23c0-1.2,0.188-2.283,0.545-3.25c0.358-0.968,0.86-1.792,1.506-2.473
	c0.646-0.682,1.417-1.204,2.313-1.569c0.898-0.366,1.885-0.544,2.962-0.539c0.906,0.003,1.748,0.122,2.523,0.357
	c0.775,0.234,1.455,0.565,2.037,0.995c0.583,0.43,1.053,0.945,1.411,1.548c0.359,0.601,0.569,1.274,0.638,2.021l-2.1-0.011
	c-0.036-0.493-0.167-0.934-0.393-1.327c-0.225-0.395-0.531-0.726-0.918-0.997c-0.388-0.271-0.849-0.478-1.387-0.623
	c-0.537-0.145-1.133-0.219-1.785-0.222c-0.778-0.005-1.487,0.128-2.132,0.394c-0.643,0.265-1.195,0.659-1.659,1.18
	s-0.826,1.162-1.082,1.922c-0.258,0.76-0.393,1.627-0.393,2.604c0,0.969,0.118,1.834,0.368,2.597
	c0.251,0.762,0.604,1.408,1.063,1.937c0.46,0.529,1.012,0.937,1.655,1.219c0.646,0.284,1.356,0.429,2.132,0.432
	c1.115,0.005,2.077-0.169,2.887-0.522c0.809-0.355,1.484-0.891,2.025-1.611l0.011-2.33l-4.013-0.019l0.008-1.822l5.985,0.027
	l-0.036,7.773l-1.453-0.006l-0.511-1.606C146.576,84.492,144.946,85.107,142.732,85.099z"/>
<polygon fill-rule="evenodd" clip-rule="evenodd" fill="#434342" stroke="#4E4A49" stroke-width="1.1126" stroke-miterlimit="10" points="
	184.004,84.97 181.938,84.96 174.002,72.917 173.946,84.923 172.031,84.915 172.103,69.688 174.19,69.701 182.091,81.767 
	182.148,69.738 184.074,69.746 "/>
<polygon fill-rule="evenodd" clip-rule="evenodd" fill="#E31E25" points="231.926,0.954 231.788,10.805 242.79,11.462 "/>
<polygon fill-rule="evenodd" clip-rule="evenodd" fill="#A75C9F" points="246.625,4.185 242.79,11.462 252.263,13.238 "/>
<polygon fill-rule="evenodd" clip-rule="evenodd" fill="#A75C9F" points="252.263,13.238 256.5,10.966 257.644,15.929 "/>
<polygon fill-rule="evenodd" clip-rule="evenodd" fill="#E85222" points="240.221,1.954 231.926,0.954 242.79,11.462 "/>
<polygon fill-rule="evenodd" clip-rule="evenodd" fill="#EF7F1A" points="246.625,4.185 240.221,1.954 242.79,11.462 "/>
<polygon fill-rule="evenodd" clip-rule="evenodd" fill="#A682B9" points="246.625,4.185 252.263,13.238 253.051,8.015 "/>
<polygon fill-rule="evenodd" clip-rule="evenodd" fill="#A4A5D3" points="256.5,10.966 253.051,8.015 252.263,13.238 "/>
<polygon fill-rule="evenodd" clip-rule="evenodd" fill="#A682B9" points="257.644,15.929 259.597,14.395 256.5,10.966 "/>
<polygon fill-rule="evenodd" clip-rule="evenodd" fill="#A75C9F" points="257.644,15.929 262.915,33.115 263.145,19.849 "/>
<polygon fill-rule="evenodd" clip-rule="evenodd" fill="#A682B9" points="262.915,33.115 266.184,27.846 263.145,19.849 "/>
<polygon fill-rule="evenodd" clip-rule="evenodd" fill="#A4A5D3" points="262.915,33.115 267.179,34.708 266.184,27.846 "/>
<polygon fill-rule="evenodd" clip-rule="evenodd" fill="#A75C9F" points="263.531,38.395 267.179,34.708 262.915,33.115 "/>
<polygon fill-rule="evenodd" clip-rule="evenodd" fill="#35509C" points="267.179,34.708 266.795,42.477 263.531,38.395 "/>
<polygon fill-rule="evenodd" clip-rule="evenodd" fill="#0369B1" points="266.795,42.477 265.76,47.363 263.531,38.395 "/>
<polygon fill-rule="evenodd" clip-rule="evenodd" fill="#0082C7" points="257.644,40.72 263.531,38.395 265.76,47.363 "/>
<polygon fill-rule="evenodd" clip-rule="evenodd" fill="#35509C" points="263.786,52.802 265.76,47.363 257.644,40.72 "/>
<polygon fill-rule="evenodd" clip-rule="evenodd" fill="#0369B1" points="253.559,43.05 257.644,40.72 263.786,52.802 "/>
<polygon fill-rule="evenodd" clip-rule="evenodd" fill="#0082C7" points="248.5,46.868 263.786,52.802 253.559,43.05 "/>
<polygon fill-rule="evenodd" clip-rule="evenodd" fill="#35509C" points="248.5,46.868 263.786,52.802 260.188,58.946 "/>
<polygon fill-rule="evenodd" clip-rule="evenodd" fill="#0369B1" points="258.197,56.888 257.492,62.101 260.188,58.946 "/>
<polygon fill-rule="evenodd" clip-rule="evenodd" fill="#0082C7" points="253.559,61.893 257.492,62.101 258.197,56.888 "/>
<polygon fill-rule="evenodd" clip-rule="evenodd" fill="#04B3D3" points="248.5,46.868 248.578,57.281 253.387,51.896 "/>
<polygon fill-rule="evenodd" clip-rule="evenodd" fill="#35509C" points="253.143,65.746 257.492,62.101 253.559,61.893 "/>
<polygon fill-rule="evenodd" clip-rule="evenodd" fill="#70C7D8" points="243.394,52.075 248.5,46.868 248.578,57.281 "/>
<polygon fill-rule="evenodd" clip-rule="evenodd" fill="#ADDADD" points="248.578,57.281 253.143,65.746 253.559,61.893 "/>
<polygon fill-rule="evenodd" clip-rule="evenodd" fill="#70C7D8" points="253.143,65.746 249.118,68.079 248.578,57.281 "/>
<polygon fill-rule="evenodd" clip-rule="evenodd" fill="#A4A5D3" points="263.145,19.849 257.644,15.929 259.597,14.395 "/>
<polygon fill-rule="evenodd" clip-rule="evenodd" fill="#04B3D3" points="248.578,57.281 243.394,70.226 249.118,68.079 "/>
<polygon fill-rule="evenodd" clip-rule="evenodd" fill="#ADDADD" points="243.394,52.075 243.394,70.226 248.578,57.281 "/>
<polygon fill-rule="evenodd" clip-rule="evenodd" fill="#04B3D3" points="243.394,52.075 238.714,58.592 243.394,70.226 "/>
<polygon fill-rule="evenodd" clip-rule="evenodd" fill="#70C7D8" points="243.394,70.226 235.566,71.608 238.714,58.592 "/>
<polygon fill-rule="evenodd" clip-rule="evenodd" fill="#ADDADD" points="233.397,68.329 238.714,58.592 235.566,71.608 "/>
<polygon fill-rule="evenodd" clip-rule="evenodd" fill="#A4A5D3" points="234.603,17.196 233.164,18.662 233.649,31.188 
	252.905,17.258 "/>
<polygon fill-rule="evenodd" clip-rule="evenodd" fill="#A4A5D3" points="258.809,30.018 235.178,32.72 257.523,32.279 "/>
<polygon fill-rule="evenodd" clip-rule="evenodd" fill="#A682B9" points="255.937,18.664 235.178,32.72 258.809,30.018 "/>
<polygon fill-rule="evenodd" clip-rule="evenodd" fill="#A75C9F" points="252.905,17.258 233.649,31.188 235.178,32.72 
	255.937,18.664 "/>
<polygon fill-rule="evenodd" clip-rule="evenodd" fill="#EF7F1A" points="231.926,0.954 231.788,10.805 221.062,11.462 "/>
<polygon fill-rule="evenodd" clip-rule="evenodd" fill="#F7D100" points="217.226,4.185 221.062,11.462 211.586,13.238 "/>
<polygon fill-rule="evenodd" clip-rule="evenodd" fill="#F7D100" points="211.586,13.238 207.351,10.966 206.206,15.929 "/>
<polygon fill-rule="evenodd" clip-rule="evenodd" fill="#E85222" points="223.628,1.954 231.926,0.954 221.062,11.462 "/>
<polygon fill-rule="evenodd" clip-rule="evenodd" fill="#E31E25" points="217.226,4.185 223.628,1.954 221.062,11.462 "/>
<polygon fill-rule="evenodd" clip-rule="evenodd" fill="#FEE66F" points="217.226,4.185 211.586,13.238 210.799,8.015 "/>
<polygon fill-rule="evenodd" clip-rule="evenodd" fill="#FCDC2F" points="207.351,10.966 210.799,8.015 211.586,13.238 "/>
<polygon fill-rule="evenodd" clip-rule="evenodd" fill="#FEE66F" points="206.206,15.929 204.252,14.395 207.351,10.966 "/>
<polygon fill-rule="evenodd" clip-rule="evenodd" fill="#F7D100" points="206.206,15.929 200.936,33.115 200.705,19.849 "/>
<polygon fill-rule="evenodd" clip-rule="evenodd" fill="#FEE66F" points="200.936,33.115 197.668,27.846 200.705,19.849 "/>
<polygon fill-rule="evenodd" clip-rule="evenodd" fill="#FCDC2F" points="200.936,33.115 196.672,34.708 197.668,27.846 "/>
<polygon fill-rule="evenodd" clip-rule="evenodd" fill="#F7D100" points="200.319,38.395 196.672,34.708 200.936,33.115 "/>
<polygon fill-rule="evenodd" clip-rule="evenodd" fill="#587F36" points="196.672,34.708 197.056,42.477 200.319,38.395 "/>
<polygon fill-rule="evenodd" clip-rule="evenodd" fill="#709D37" points="197.056,42.477 198.09,47.363 200.319,38.395 "/>
<polygon fill-rule="evenodd" clip-rule="evenodd" fill="#87B132" points="206.206,40.72 200.319,38.395 198.09,47.363 "/>
<polygon fill-rule="evenodd" clip-rule="evenodd" fill="#709D37" points="200.064,52.802 198.09,47.363 206.206,40.72 "/>
<polygon fill-rule="evenodd" clip-rule="evenodd" fill="#587F36" points="210.292,43.05 206.206,40.72 200.064,52.802 "/>
<polygon fill-rule="evenodd" clip-rule="evenodd" fill="#709D37" points="215.35,46.868 200.064,52.802 210.292,43.05 "/>
<polygon fill-rule="evenodd" clip-rule="evenodd" fill="#87B132" points="215.35,46.868 200.064,52.802 203.663,58.946 "/>
<polygon fill-rule="evenodd" clip-rule="evenodd" fill="#709D37" points="205.653,56.888 206.358,62.101 203.663,58.946 "/>
<polygon fill-rule="evenodd" clip-rule="evenodd" fill="#587F36" points="210.292,61.893 206.358,62.101 205.653,56.888 "/>
<polygon fill-rule="evenodd" clip-rule="evenodd" fill="#70C7D8" points="215.35,46.868 215.273,57.281 210.465,51.896 "/>
<polygon fill-rule="evenodd" clip-rule="evenodd" fill="#709D37" points="210.708,65.746 206.358,62.101 210.292,61.893 "/>
<polygon fill-rule="evenodd" clip-rule="evenodd" fill="#04B3D3" points="220.455,52.075 215.35,46.868 215.273,57.281 "/>
<polygon fill-rule="evenodd" clip-rule="evenodd" fill="#70C7D8" points="215.273,57.281 210.708,65.746 210.292,61.893 "/>
<polygon fill-rule="evenodd" clip-rule="evenodd" fill="#04B3D3" points="210.708,65.746 214.733,68.079 215.273,57.281 "/>
<polygon fill-rule="evenodd" clip-rule="evenodd" fill="#FCDC2F" points="200.705,19.849 206.206,15.929 204.252,14.395 "/>
<polygon fill-rule="evenodd" clip-rule="evenodd" fill="#ADDADD" points="215.273,57.281 220.455,70.226 214.733,68.079 "/>
<polygon fill-rule="evenodd" clip-rule="evenodd" fill="#70C7D8" points="220.455,52.075 220.455,70.226 215.273,57.281 "/>
<polygon fill-rule="evenodd" clip-rule="evenodd" fill="#04B3D3" points="220.455,52.075 225.138,58.592 220.455,70.226 "/>
<polygon fill-rule="evenodd" clip-rule="evenodd" fill="#ADDADD" points="220.455,70.226 228.284,71.608 225.138,58.592 "/>
<polygon fill-rule="evenodd" clip-rule="evenodd" fill="#70C7D8" points="230.455,68.329 225.138,58.592 228.284,71.608 "/>
<polygon fill-rule="evenodd" clip-rule="evenodd" fill="#04B3D3" points="233.397,68.329 231.926,71.792 235.566,71.608 "/>
<polygon fill-rule="evenodd" clip-rule="evenodd" fill="#04B3D3" points="230.455,68.329 228.284,71.608 231.926,71.792 "/>
<polygon fill-rule="evenodd" clip-rule="evenodd" fill="#FEE66F" points="229.247,17.196 230.686,18.662 230.201,31.188 
	210.946,17.258 "/>
<polygon fill-rule="evenodd" clip-rule="evenodd" fill="#FCDC2F" points="205.042,30.018 228.672,32.72 206.327,32.279 "/>
<polygon fill-rule="evenodd" clip-rule="evenodd" fill="#F7D100" points="207.915,18.664 228.672,32.72 205.042,30.018 "/>
<polygon fill-rule="evenodd" clip-rule="evenodd" fill="#FCDC2F" points="210.946,17.258 230.201,31.188 228.672,32.72 
	207.915,18.664 "/>
<polygon fill-rule="evenodd" clip-rule="evenodd" fill="#70C7D8" points="230.455,68.329 233.397,68.329 231.926,71.792 "/>
<polygon fill-rule="evenodd" clip-rule="evenodd" fill="#0082C7" points="256.505,72.775 255.221,67.291 248.17,71.198 
	248.168,71.199 "/>
<path fill-rule="evenodd" clip-rule="evenodd" fill="#0369B1" d="M255.223,67.297c-0.002,0,1.279,5.479,1.282,5.479
	c4.961-5.479,4.871-5.37,4.871-5.37c0.031-0.036,0.058-0.072,0.09-0.108C261.393,67.297,255.225,67.297,255.223,67.297z"/>
<path fill-rule="evenodd" clip-rule="evenodd" fill="#35509C" d="M261.472,67.291l-0.585-5.255l-0.05,0.047
	c0.05-0.047-5.572,5.177-5.572,5.177l-0.042,0.037h6.243C261.468,67.295,261.47,67.292,261.472,67.291z"/>
<path fill-rule="evenodd" clip-rule="evenodd" fill="#0082C7" d="M260.887,62.036l0.585,5.255c5.356-7.494,0,0,5.356-7.494
	L260.887,62.036z"/>
<path fill-rule="evenodd" clip-rule="evenodd" fill="#0369B1" d="M266.542,52.613c0,0-5.655,9.423-5.643,9.397l-0.013,0.025
	l5.941-2.239c0.005-0.003,0.005-0.006,0.007-0.009L266.542,52.613z"/>
<path fill-rule="evenodd" clip-rule="evenodd" fill="#0082C7" d="M270.865,50.318l-1.721-7.1l-0.018,0.064l-2.563,9.284l4.289-2.213
	C270.858,50.342,270.862,50.331,270.865,50.318z"/>
<path fill-rule="evenodd" clip-rule="evenodd" fill="#35509C" d="M270.854,50.353l-4.289,2.213
	c-0.007,0.014-0.016,0.031-0.022,0.048l0.294,7.174C270.854,50.353,266.828,59.635,270.854,50.353z"/>
<path fill-rule="evenodd" clip-rule="evenodd" fill="#0369B1" d="M269.145,43.218l1.721,7.1c1.729-10.337,0,0.001,1.729-10.336
	L269.145,43.218z"/>
<path fill-rule="evenodd" clip-rule="evenodd" fill="#35509C" d="M269.645,35.061c0.007,0.194-0.501,8.125-0.501,8.125l0.001,0.031
	l3.45-3.237c0-0.029,0.002-0.06,0.002-0.09L269.645,35.061z"/>
<polygon fill-rule="evenodd" clip-rule="evenodd" fill="#0082C7" points="272.598,39.89 271.709,30.407 269.651,35.072 "/>
<path fill-rule="evenodd" clip-rule="evenodd" fill="#0369B1" d="M271.698,30.352l-3.233-3.493c0,0,1.172,8.014,1.18,8.186
	l0.007,0.027l2.058-4.665C271.707,30.386,271.7,30.37,271.698,30.352z"/>
<path fill-rule="evenodd" clip-rule="evenodd" fill="#35509C" d="M268.813,21.957l-0.326,4.925l3.196,3.404
	C271.624,30.015,268.813,21.958,268.813,21.957z"/>
<path fill-rule="evenodd" clip-rule="evenodd" fill="#A682B9" d="M265.498,19.016l2.953,7.794l0.036,0.073l0.326-4.923
	c-0.006-0.018-0.016-0.036-0.024-0.054L265.498,19.016z"/>
<path fill-rule="evenodd" clip-rule="evenodd" fill="#A75C9F" d="M265.52,19.037l3.27,2.868c0.024-0.147-4.534-7.27-4.534-7.27
	C264.782,16.508,265.52,19.037,265.52,19.037z"/>
<polygon fill-rule="evenodd" clip-rule="evenodd" fill="#ADDADD" points="237.492,73.479 226.843,73.99 226.813,73.993 
	237.906,78.165 "/>
<path fill-rule="evenodd" clip-rule="evenodd" fill="#70C7D8" d="M226.813,73.993l-0.039-0.012
	c-4.324-0.559-8.432-1.844-12.189-3.741l-0.022-0.006l8.245,5.835h0.001L226.813,73.993z"/>
<polygon fill-rule="evenodd" clip-rule="evenodd" fill="#68B437" points="214.563,70.234 214.537,70.216 206.25,64.535 
	206.242,64.529 211.107,70.4 211.111,70.404 "/>
<path fill-rule="evenodd" clip-rule="evenodd" fill="#A5C958" d="M211.107,70.4l-4.865-5.871l-2.955-1.222
	C203.287,63.308,210.909,70.404,211.107,70.4z"/>
<path fill-rule="evenodd" clip-rule="evenodd" fill="#A4A5D3" d="M260.665,11.762l0.048,0.076c-0.048-0.076,4.749,7.111,4.749,7.111
	l0.058,0.087l-1.265-4.402c-0.015-0.02-0.031-0.04-0.044-0.059L260.665,11.762z"/>
<polygon fill-rule="evenodd" clip-rule="evenodd" fill="#0082C7" points="248.168,71.201 248.168,71.199 244.204,73.893 "/>
<path fill-rule="evenodd" clip-rule="evenodd" fill="#0082C7" d="M248.168,71.203l-1.891,8.945h-0.01
	c4.66,4.781,4.66,4.781,4.66,4.781L248.168,71.203z"/>
<path fill-rule="evenodd" clip-rule="evenodd" fill="#0082C7" d="M237.906,78.165l-0.003,0.003c0.014,0.003,0.03,0.006,0.047,0.008
	L237.906,78.165z"/>
<path fill-rule="evenodd" clip-rule="evenodd" fill="#35509C" d="M250.647,84.097c0-0.002-0.002-0.003-0.002-0.007
	C250.646,84.093,250.647,84.095,250.647,84.097z"/>
<path fill-rule="evenodd" clip-rule="evenodd" fill="#35509C" d="M246.27,80.144l0.008,0.001l1.893-8.946l-0.002-0.005l-3.964,2.693
	l3.964-2.693l-10.262,6.966l0.044,0.009c-0.017,0-0.031-0.002-0.047-0.005C237.95,78.168,246.27,80.144,246.27,80.144z"/>
<path fill-rule="evenodd" clip-rule="evenodd" fill="#35509C" d="M250.858,84.767c-0.006-0.012-0.01-0.022-0.01-0.033
	C250.85,84.742,250.852,84.755,250.858,84.767z"/>
<path fill-rule="evenodd" clip-rule="evenodd" fill="#35509C" d="M250.811,84.582c-0.002-0.011-0.005-0.019-0.009-0.029
	C250.806,84.563,250.808,84.573,250.811,84.582z"/>
<polygon fill-rule="evenodd" clip-rule="evenodd" fill="#04B3D3" points="237.492,73.479 237.906,78.165 248.168,71.201 "/>
<polygon fill-rule="evenodd" clip-rule="evenodd" fill="#04B3D3" points="226.813,73.993 227.158,77.174 237.906,78.165 "/>
<polygon fill-rule="evenodd" clip-rule="evenodd" fill="#ADDADD" points="222.809,76.069 227.158,77.174 226.813,73.993 "/>
<polygon fill-rule="evenodd" clip-rule="evenodd" fill="#A6C724" points="211.111,70.403 215.783,73.15 214.537,70.216 "/>
<polygon fill-rule="evenodd" clip-rule="evenodd" fill="#A5C958" points="215.783,73.161 222.804,76.076 214.537,70.226 "/>
<polygon fill-rule="evenodd" clip-rule="evenodd" fill="#A6C724" points="206.239,64.524 200.553,58.064 199.57,58.064 
	203.287,63.308 206.242,64.529 "/>
<path fill-rule="evenodd" clip-rule="evenodd" fill="#A5C958" d="M195.676,47.128c0.283,2.257,1.724,6.637,1.724,6.637h0.547
	L195.676,47.128z"/>
<path fill-rule="evenodd" clip-rule="evenodd" fill="#68B437" d="M197.94,53.752c0.003,0.004,0.004,0.01,0.006,0.013h-0.547
	l2.171,4.299h0.982C200.553,58.063,197.946,53.766,197.94,53.752z"/>
<path fill-rule="evenodd" clip-rule="evenodd" fill="#A75C9F" d="M253.069,4.926c1.815,1.239,3.505,2.652,5.078,4.185l0.767,0
	C257.081,7.532,255.112,6.108,253.069,4.926z"/>
<path fill-rule="evenodd" clip-rule="evenodd" fill="#A682B9" d="M258.922,9.103h-0.764c0.871,0.851,1.719,1.729,2.507,2.659
	l3.596,2.865L258.922,9.103z"/>
<polygon fill-rule="evenodd" clip-rule="evenodd" fill="#0369B1" points="248.168,71.201 250.928,84.825 252.688,78.903 "/>
<polygon fill-rule="evenodd" clip-rule="evenodd" fill="#35509C" points="256.505,72.775 252.688,78.903 248.168,71.201 "/>
<circle fill-rule="evenodd" clip-rule="evenodd" fill="#FEFEFE" cx="210.448" cy="56.921" r="4.435"/>
<circle fill-rule="evenodd" clip-rule="evenodd" fill="#FEFEFE" cx="253.558" cy="56.888" r="4.435"/>
</svg>
